<svg xmlns="http://www.w3.org/2000/svg" viewBox="0 0 512 512" fill="currentColor">
  <defs>
    <clipPath id="wave-circle-clip">
      <circle cx="256" cy="256" r="250"/>
    </clipPath>
  </defs>
  <g clip-path="url(#wave-circle-clip)">
    <path d="M 240.5 2 L 271.5 2 L 272.5 3 L 291.5 4 L 324.5 11 L 348.5 19 Q 374.6 29.4 396.5 44 L 415.5 58 L 434.5 76 L 436 76 L 436 77.5 L 454 96.5 L 468 115.5 Q 482.6 137.4 493 163.5 L 501 187.5 L 506 208.5 L 508 227.5 L 509 228.5 L 509 239.5 L 510 240.5 L 510 263.5 L 482.5 293 Q 456.1 316.1 419.5 329 L 386.5 337 L 351.5 339 L 350.5 338 L 338.5 338 L 337.5 337 L 319.5 335 L 294.5 327 L 278.5 319 L 261 302.5 Q 247.5 287 240 265.5 L 236 246.5 L 236 226.5 L 237 225.5 L 238 214.5 L 247 192.5 Q 254.1 180.6 264.5 172 Q 274.9 163.4 289.5 159 L 294.5 158 L 310.5 158 Q 314.1 160.9 313 168.5 L 308.5 175 L 301.5 177 L 299.5 176 L 300.5 178 Q 303.5 181 310.5 180 Q 318.4 177.9 322 171.5 L 325 161 Q 333.4 160.8 337 166.5 Q 341.2 170.3 340 179.5 L 334.5 186 L 330 187.5 Q 332.4 190.1 338.5 189 Q 345.7 187.2 349 181.5 L 350.5 179 L 356 181.5 Q 362.8 186.7 361 200.5 L 356.5 208 L 347 211.5 Q 349.9 214.6 356.5 214 Q 364.9 211.9 369 205.5 L 373 195.5 L 373 185.5 L 371 180.5 Q 372.8 177.3 379.5 179 L 386 183.5 Q 389.3 186.7 389 193.5 L 387 197.5 L 388.5 197 L 391 195.5 Q 395.3 191.3 394 181.5 Q 391.1 173.4 384.5 169 L 377 164.5 L 376 159 Q 373.3 157.9 374 160.5 Q 371.1 166.6 364 167 L 366 161.5 L 366 157.5 L 361.5 150 L 359 148.5 Q 358.3 146.3 360.5 147 L 366 151.5 Q 369.1 155.4 368.5 163 L 372 159.5 L 373 148.5 L 375 145 L 381.5 142 L 385.5 142 Q 392 143.5 395 148.5 L 397 155.5 L 396 158.5 L 399 156.5 Q 401.7 153.2 401 146.5 Q 398.9 138.2 392.5 134 L 384.5 130 L 374.5 129 L 372 126.5 L 366.5 120 Q 363 116.5 356.5 116 L 354 113.5 L 350 104.5 L 352.5 100 Q 355.2 97.2 361.5 98 Q 368 99.5 371 104.5 L 372.5 109 Q 374.9 106.9 374 101.5 Q 371.9 93.6 365.5 90 L 357.5 87 L 341.5 87 L 338.5 86 Q 328.5 74 313.5 67 L 305.5 65 L 289.5 65 L 280.5 59 L 261.5 53 L 234.5 52 L 233.5 53 L 215.5 55 L 192.5 62 L 163.5 76 Q 124.7 100.2 94 132.5 L 72 162.5 L 43 214.5 L 25 238 L 22 239.5 L 20.5 242 L 2.5 256 L 2 240.5 L 3 239.5 L 3 228.5 L 4 227.5 L 6 208.5 L 11 187.5 L 25 149.5 L 44 115.5 L 58 96.5 L 76 77.5 L 76 76 L 77.5 76 L 96.5 58 L 115.5 44 L 149.5 25 L 187.5 11 L 208.5 6 L 227.5 4 L 228.5 3 L 239.5 3 L 240.5 2 Z M 469 201 Q 458 203 453 211 L 445 205 L 437 203 L 426 206 L 436 207 L 447 213 L 454 221 L 458 214 Q 465 204 480 203 Q 476 200 469 201 Z M 385 235 L 385 236 Q 393 237 399 242 Q 405 247 409 256 L 410 254 L 421 245 L 436 242 L 431 239 L 422 239 L 411 245 L 399 236 Q 393 234 385 235 Z M 323 261 L 323 262 Q 333 263 339 269 Q 344 274 346 281 L 361 271 L 375 269 L 371 266 Q 354 264 349 272 L 348 271 Q 342 259 323 261 Z  M 257.5 70 Q 263.1 70.5 265 74.5 Q 267.3 77.7 266 84.5 L 264.5 87 L 259.5 81 L 250.5 80 L 245.5 82 L 247.5 79 L 255.5 77 L 263.5 82 L 264 77.5 L 259.5 72 L 257.5 70 Z  M 298.5 79 Q 304.4 79.6 307 83.5 Q 309.8 86.2 309 92.5 L 306.5 96 L 304 92 L 298.5 89 L 292 88.5 Q 293.5 85.5 299.5 87 L 306 92.5 L 306.5 94 L 307 88.5 L 302.5 82 Q 298.5 81.5 298.5 79 Z  M 269.5 88 Q 277 88.5 280 93.5 L 283 102.5 Q 282.1 109.1 277.5 112 Q 277 104.5 272.5 101 L 266 99 Q 264.7 95.7 269.5 97 L 277 102.5 L 278.5 106 Q 281.5 104.5 280 98.5 L 275.5 92 L 269.5 89 L 269.5 88 Z  M 229 100 Q 231.7 98.9 231 101.5 Q 234.6 104.4 233 112.5 L 228.5 119 L 224.5 121 L 224 119.5 Q 226.5 118 225 112.5 L 220.5 106 L 216 103.5 L 219.5 103 L 225 107.5 Q 228 110 227.5 116 Q 232 113.5 231 105.5 L 229 100 Z  M 306 111 Q 311.9 111.9 315 116.5 Q 318.2 119.8 317 127.5 L 314 132.5 L 315.5 133 L 322 127.5 Q 325.3 123.8 324 115.5 L 323 112.5 L 325 113.5 L 326 124.5 L 320.5 133 Q 317.5 136 310.5 135 L 313 131.5 L 315 123.5 L 310.5 115 L 306 113 L 306 111 Z  M 200.5 113 Q 208.6 112.9 211 118.5 L 212 122.5 Q 210.5 125.5 209 122.5 L 204.5 116 Q 200.5 115.5 200.5 113 Z  M 238.5 115 Q 246.8 115.8 250 121.5 L 252 129.5 L 247.5 136 L 246 136.5 L 251.5 137 L 258 131.5 L 260 122 L 262.5 122 L 268 127.5 L 269 138.5 L 264.5 144 Q 261.9 143.3 263 146 Q 272.2 145.9 276 139.5 L 279 130 Q 285.8 130.5 289 135.5 Q 292 138.5 291 145.5 L 288 150.5 L 290.5 151 L 297.5 146 L 307 153.5 L 304.5 154 L 302.5 154 L 292.5 154 L 278.5 158 Q 261.2 165.7 250 179.5 Q 239.4 192.4 234 210.5 L 231 225.5 L 231 247.5 L 235 266.5 L 243 285.5 Q 254.3 305.7 271.5 320 L 298.5 339 Q 318.2 350.3 341.5 358 L 366.5 365 L 388.5 369 L 404.5 370 L 405.5 371 L 433.5 372 L 434.5 371 L 461.5 370 L 484.5 366 L 484 367.5 L 476.5 381 L 455.5 385 L 447.5 385 L 446.5 386 L 412.5 387 L 411.5 386 L 386.5 385 L 385.5 384 L 378.5 384 L 356.5 380 Q 332.9 374.6 312.5 366 Q 289.6 356.4 270.5 343 Q 254.9 332.1 243 317.5 Q 228.9 301.1 220 279.5 L 215 262.5 L 214 251.5 L 213 250.5 L 213 227.5 L 217 208.5 L 226 187.5 Q 234.3 172.8 246.5 162 L 252 157.5 Q 252.8 155.3 250.5 156 L 248.5 156 L 244.5 160 L 233 170.5 Q 218.7 187.2 212 211.5 L 209 228.5 L 209 251.5 L 213 272.5 L 224 298.5 Q 236.9 321.1 256.5 337 Q 291.2 365.8 340.5 380 L 383.5 389 L 405.5 390 L 406.5 391 L 437.5 391 L 438.5 390 L 449.5 390 L 450.5 389 L 457.5 389 L 473.5 386 L 473 387.5 L 458.5 409 L 431.5 414 L 422.5 414 L 421.5 415 L 382.5 415 L 381.5 414 L 363.5 413 L 333.5 407 L 310.5 400 L 284.5 389 Q 247.2 370.8 221 341.5 Q 197 315 185.5 276 L 183 279.5 Q 189.6 304.4 202 323.5 Q 216.2 345.3 235.5 362 Q 267.6 389.4 311.5 405 L 339.5 413 L 360.5 417 L 375.5 418 L 376.5 419 L 390.5 419 L 391.5 420 L 409.5 420 L 410.5 419 L 434.5 418 L 454 414 L 436 436 L 434.5 436 L 425.5 445 L 413.5 448 L 400.5 449 L 399.5 450 L 389.5 450 L 388.5 451 L 357.5 451 L 356.5 450 L 346.5 450 L 345.5 449 L 331.5 448 L 308.5 443 Q 284.1 436.4 263.5 426 Q 225 406.5 198 375.5 Q 172.3 347 160 306 L 156 306 L 156 307.5 Q 161.9 329.1 172 346.5 Q 186.2 370.8 205.5 390 Q 238.8 423.2 287.5 441 L 318.5 450 L 341.5 454 L 350.5 454 L 351.5 455 L 393.5 455 L 394.5 454 L 402.5 454 L 417.5 451 L 415.5 454 L 384.5 475 Q 379 473.5 377.5 476 L 348.5 476 L 347.5 475 L 336.5 475 L 335.5 474 L 328.5 474 L 305.5 470 L 289.5 466 L 256.5 454 Q 211.1 433.9 180 399.5 Q 165.7 383.8 155 364.5 L 143 338.5 L 138 323.5 L 136 312.5 L 134.5 311 Q 130.3 309.7 132 314.5 L 140 342.5 L 154 371.5 Q 170.7 399.3 194.5 420 Q 226.1 447.9 269.5 464 L 311.5 476 L 329.5 478 L 330.5 479 L 339.5 479 L 340.5 480 L 366.5 481 Q 368.3 478.2 374.5 480 L 374.5 481 L 340.5 496 L 303.5 506 L 267.5 498 Q 243.7 490.8 223.5 480 Q 189.5 462 164 435.5 Q 141.3 412.2 126 381.5 L 114 349.5 L 109 327.5 L 107 306.5 L 105.5 305 L 104 305.5 L 104 319.5 L 111 354.5 Q 117.6 376.4 128 394.5 Q 145.4 425.1 170.5 448 Q 192.9 469.1 221.5 484 L 253.5 498 L 289 507.5 Q 282.7 510.2 272.5 509 L 271.5 510 L 240.5 510 L 239.5 509 L 228.5 509 L 227.5 508 L 220.5 508 L 203.5 505 L 163.5 493 Q 138.2 477.8 120 455.5 Q 95.9 428.1 81 391.5 L 73 366.5 L 70 351.5 L 69 337.5 L 68 336.5 L 68 305 L 65 306.5 L 64 336.5 L 65 337.5 L 65 345.5 L 69 367.5 L 81 402.5 Q 100.2 445.3 132.5 475 L 140 481.5 L 138.5 481 L 108.5 463 L 76 436 L 76 434.5 L 58 415.5 L 38 386.5 L 30 359.5 L 29 344.5 L 28 343.5 L 28 333.5 L 31 322.5 L 38.5 313 L 49.5 309 L 56.5 311 L 60 314.5 L 61 319 Q 64 320.3 63 316.5 L 64 313.5 Q 62.1 305.9 56.5 302 L 48.5 299 L 41.5 299 L 34.5 301 L 35 299.5 Q 38.6 290.1 46.5 285 L 58.5 279 L 72.5 279 L 82 285.5 Q 85.2 288.8 84 296.5 L 79.5 302 L 77 303.5 L 81.5 304 Q 87.3 302.8 90 298.5 Q 94 294.1 93 284.5 Q 90.9 274.6 83.5 270 L 80 268.5 Q 82.1 264.6 88.5 265 Q 95 266.5 98 271.5 L 98.5 274 L 99 266.5 L 93.5 259 L 90 256.5 L 92.5 256 L 100 262.5 L 101 267 Q 107.1 267.9 110 273.5 Q 112.6 276.4 112 282.5 L 109 289 L 102 291.5 Q 103.5 294.5 109.5 293 L 118 287.5 L 122.5 279 L 130 285.5 Q 133.5 289.5 132 298.5 L 126.5 305 Q 122.8 304 124 307 L 130.5 307 L 138 301.5 Q 143.5 296.5 142 284.5 L 141 279.5 Q 142 277 146.5 278 L 153 282.5 L 154 285.5 L 152 289.5 L 154 295.5 L 154 300.5 L 150 303.5 L 155.5 304 L 164 296.5 Q 167.1 292.1 166 283.5 L 159 271.5 L 159 264.5 Q 156.3 263.4 157 260 L 163.5 259 Q 170 260.5 173 265.5 Q 175.7 267.8 175 273.5 L 173 278 Q 177.7 277.6 180 273.5 L 182 265.5 L 180 256.5 Q 181.5 252.5 188.5 254 L 195 259.5 L 196 268.5 L 194 271.5 L 195.5 272 L 199 270 L 202 263.5 L 202 258.5 L 198 250.5 L 198 228.5 L 202 207.5 L 211 184.5 Q 221.1 165.6 236.5 152 L 252 141.5 Q 251.3 139.3 247.5 140 L 236.5 148 Q 236.8 134.8 230 128.5 L 230 122.5 L 233.5 117 L 238.5 115 Z  M 331.5 117 L 338.5 117 L 346 122.5 L 349.5 132 Q 353.6 128.1 352 118.5 L 351.5 117 L 354 118.5 L 355 125.5 Q 353.9 132.9 348.5 136 L 346.5 137 L 346 127.5 L 343 122 Q 339.2 118.5 331.5 118 L 331.5 117 Z  M 179.5 133 Q 194.5 131 200 138.5 Q 204.1 141.4 203 149.5 L 200 153.5 L 201.5 154 L 207 149.5 L 209 145.5 L 209 134 Q 221.6 133.1 226 141.5 Q 229.2 144.8 228 152.5 Q 223.8 155.3 223 161.5 L 210 178.5 L 200 200.5 L 195 221.5 L 193.5 246 Q 188 241 175.5 243 Q 172.8 245.8 166.5 245 L 163 242.5 L 159.5 238 L 155 237 L 157.5 232 Q 161.2 228.7 169.5 230 L 175 234.5 L 175.5 236 L 176 230.5 L 170.5 224 Q 166.1 219.9 156.5 221 L 151.5 222 L 141.5 227 L 129.5 227 Q 118.6 223.9 113 215.5 Q 106.8 207.7 107 193.5 Q 109 180.5 117.5 174 Q 122.5 168.5 134.5 170 L 142 174 L 145 179.5 L 145 184.5 L 144 187 L 149 183.5 L 150 172.5 L 147 166.5 Q 150.2 162.7 157.5 163 Q 166 164.5 170 170.5 Q 173.2 173.8 172 181.5 L 169 185.5 L 171.5 186 L 176 182.5 Q 180.5 178 179 167.5 Q 176.8 159.7 171 155.5 Q 173.5 151 181.5 152 L 189 157.5 L 189.5 160 Q 192 159 191 154.5 L 184.5 146 Q 180.8 142.7 172.5 144 L 171 142.5 L 170 139.5 Q 173 134.5 179.5 133 Z M 164 176 L 161 177 L 156 188 L 148 217 L 149 220 L 152 219 L 156 199 L 164 179 Q 166 177 164 176 Z  M 152.5 134 L 159 137.5 Q 162.8 140.7 162 148.5 L 160.5 151 L 159 142.5 L 152.5 134 Z  M 144.5 142 Q 154.2 140.8 157 146.5 Q 157.8 148.8 155.5 148 Q 153 143 144.5 144 L 141.5 145 L 142.5 143 L 144.5 142 Z  M 138.5 243 Q 145.7 246.3 144 258.5 L 141 264 Q 138.3 265.1 139 262.5 L 134.5 254 L 127 250.5 L 129.5 249 Q 136 250.5 139 255.5 L 140.5 259 Q 142.8 257.3 142 252.5 L 138 245.5 L 138.5 243 Z  M 507.5 286 L 508 291.5 L 502 319 Q 470.5 345.6 425 359.5 L 428.5 361 L 438.5 359 L 468.5 346 L 492.5 331 L 499.5 325 L 500 327.5 L 488 360 L 467.5 364 L 451.5 365 L 450.5 366 L 411.5 366 L 410.5 365 L 398.5 365 L 397.5 364 L 378.5 362 L 352.5 356 L 322.5 345 L 312 339.5 L 315.5 339 L 320.5 341 L 337.5 343 L 338.5 344 L 348.5 344 L 349.5 345 L 380.5 345 L 381.5 344 L 389.5 344 L 412.5 340 L 447.5 328 Q 482.5 312 507.5 286 Z "/>
  </g>
  <circle cx="256" cy="256" r="248" fill="none" stroke="currentColor" stroke-width="14"/>
</svg>
